<?xml version="1.0" encoding="UTF-8" standalone="no"?>
<!-- Created with Inkscape (http://www.inkscape.org/) -->

<svg
   xmlns:dc="http://purl.org/dc/elements/1.1/"
   xmlns:cc="http://creativecommons.org/ns#"
   xmlns:rdf="http://www.w3.org/1999/02/22-rdf-syntax-ns#"
   xmlns:svg="http://www.w3.org/2000/svg"
   xmlns="http://www.w3.org/2000/svg"
   xmlns:xlink="http://www.w3.org/1999/xlink"
   xmlns:sodipodi="http://sodipodi.sourceforge.net/DTD/sodipodi-0.dtd"
   xmlns:inkscape="http://www.inkscape.org/namespaces/inkscape"
   width="210mm"
   height="297mm"
   viewBox="0 0 210 297"
   version="1.1"
   id="svg5531"
   inkscape:version="0.92.3 (2405546, 2018-03-11)"
   sodipodi:docname="html.svg">
  <defs
     id="defs5525">
    <linearGradient
       inkscape:collect="always"
       xlink:href="#a"
       id="linearGradient810"
       gradientUnits="userSpaceOnUse"
       gradientTransform="matrix(278.39,273.89,-273.89,278.39,1214.6,446.11)"
       x2="1" />
    <linearGradient
       id="a"
       x2="1"
       gradientTransform="matrix(278.39,273.89,-273.89,278.39,1214.6,446.11)"
       gradientUnits="userSpaceOnUse">
      <stop
         stop-color="#212121"
         stop-opacity=".61569"
         offset="0"
         id="stop777" />
      <stop
         stop-color="#4d4d4d"
         stop-opacity="0"
         offset="1"
         id="stop779" />
    </linearGradient>
  </defs>
  <sodipodi:namedview
     id="base"
     pagecolor="#ffffff"
     bordercolor="#666666"
     borderopacity="1.0"
     inkscape:pageopacity="0.0"
     inkscape:pageshadow="2"
     inkscape:zoom="0.35"
     inkscape:cx="400"
     inkscape:cy="560"
     inkscape:document-units="mm"
     inkscape:current-layer="layer1"
     showgrid="false"
     inkscape:window-width="1533"
     inkscape:window-height="845"
     inkscape:window-x="1987"
     inkscape:window-y="498"
     inkscape:window-maximized="1" />
  <metadata
     id="metadata5528">
    <rdf:RDF>
      <cc:Work
         rdf:about="">
        <dc:format>image/svg+xml</dc:format>
        <dc:type
           rdf:resource="http://purl.org/dc/dcmitype/StillImage" />
        <dc:title></dc:title>
      </cc:Work>
    </rdf:RDF>
  </metadata>
  <g
     inkscape:label="Calque 1"
     inkscape:groupmode="layer"
     id="layer1">
    <g
       transform="matrix(0.26305846,0,0,0.28628462,-166.1878,-59.898542)"
       id="g739">
      <path
         d="M 629.27,911.11 V 287.09 c 0,-41.778 33.867,-75.646 75.645,-75.646 h 416.3 l 311.9,311.9 v 451.04 h -803.84 v -63.27 z"
         id="path707"
         inkscape:connector-curvature="0"
         style="fill:#c12906" />
      <g
         transform="matrix(1,0,0,0.87323,0,160.45)"
         id="g711">
        <path
           d="m 1433.1,932.09 v 241.64 c 0,38.83 -33.86,70.3 -75.64,70.3 H 704.9 c -41.778,0 -75.645,-31.47 -75.645,-70.3 V 932.09 h 803.84 z"
           id="path709"
           inkscape:connector-curvature="0"
           style="fill:#9b0d0a" />
      </g>
      <g
         transform="translate(3.2597)"
         id="g715">
        <path
           d="m 1117.8,211.44 h 0.14 l 311.94,311.94 v 260.83 c -2.19,1.131 -4.06,1.055 -5.56,-0.442 -14.77,-14.769 -292.47,-273.35 -292.47,-294.24 0,-91.863 -13.88,-275.89 -14.05,-278.09 z"
           id="path713"
           style="fill:url(#linearGradient810)"
           inkscape:connector-curvature="0" />
      </g>
      <g
         transform="translate(3.2597)"
         id="g719">
        <path
           d="m 1117.8,211.44 h 0.14 l 311.94,311.94 h -233.33 c -20.88,0 -40.91,-8.297 -55.68,-23.066 -14.77,-14.769 -23.07,-34.8 -23.07,-55.686 v -233.19 z"
           id="path717"
           inkscape:connector-curvature="0"
           style="fill:#9b0d0a" />
      </g>
      <g
         transform="translate(0,44.289)"
         id="g729"
         style="fill:#ffffff;fill-rule:nonzero">
        <path
           d="M 743.06,1138.4 V 983.51 h 42.212 v 60.198 h 56.283 V 983.51 h 42.317 v 154.89 h -42.317 v -63.06 h -56.283 v 63.06 z"
           id="path721"
           inkscape:connector-curvature="0" />
        <path
           d="m 939.1,1138.4 v -118.28 h -34.701 v -36.608 h 111.62 v 36.608 h -34.702 v 118.28 h -42.212 z"
           id="path723"
           inkscape:connector-curvature="0" />
        <path
           d="m 1214.3,1138.4 h -39.46 l -9.1,-66.97 c -0.64,-4.73 -1.22,-9.98 -1.75,-15.77 -0.53,-5.78 -1,-12.09 -1.43,-18.93 -0.98,6.56 -2.92,14.74 -5.82,24.54 -0.63,2.05 -1.09,3.56 -1.37,4.55 l -21.05,72.58 h -28.15 l -21.05,-72.58 c -0.28,-0.99 -0.7,-2.5 -1.27,-4.55 -2.96,-9.8 -4.9,-17.95 -5.82,-24.44 -0.42,5.86 -0.91,11.66 -1.48,17.41 -0.56,5.74 -1.23,11.47 -2.01,17.19 l -9.1,66.97 h -39.25 l 23.91,-154.89 h 41.79 l 23.38,79.878 c 0.14,0.56 0.43,1.48 0.85,2.75 2.19,7.12 3.56,13.22 4.13,18.3 0.28,-2.75 0.81,-5.8 1.58,-9.15 0.78,-3.35 1.84,-7.39 3.18,-12.12 l 23.59,-79.658 h 41.89 z"
           id="path725"
           inkscape:connector-curvature="0" />
        <path
           d="M 1237,1138.4 V 983.51 h 42.22 v 118.7 h 52.47 v 36.19 z"
           id="path727"
           inkscape:connector-curvature="0" />
      </g>
      <g
         transform="matrix(0.75567,0,0,0.75567,-643.58,557.84)"
         id="g737"
         style="fill:#ffffff;fill-rule:nonzero">
        <path
           d="m 2080.2,122.57 v 46.978 l -158.57,65.176 158.57,64.619 v 47.164 l -218.74,-90.244 v -43.264 z"
           id="path731"
           inkscape:connector-curvature="0" />
        <path
           d="M 2129.2,383.27 2262.34,70.02 h 41.04 l -132.77,313.25 z"
           id="path733"
           inkscape:connector-curvature="0" />
        <path
           d="m 2352.4,122.57 218.73,90.429 v 43.264 l -218.73,90.244 v -47.164 l 158.57,-64.619 -158.57,-65.176 z"
           id="path735"
           inkscape:connector-curvature="0" />
      </g>
    </g>
  </g>
</svg>
