<?xml version="1.0" encoding="UTF-8" standalone="no"?>
<!-- Created with Inkscape (http://www.inkscape.org/) -->

<svg
   xmlns:dc="http://purl.org/dc/elements/1.1/"
   xmlns:cc="http://creativecommons.org/ns#"
   xmlns:rdf="http://www.w3.org/1999/02/22-rdf-syntax-ns#"
   xmlns:svg="http://www.w3.org/2000/svg"
   xmlns="http://www.w3.org/2000/svg"
   xmlns:xlink="http://www.w3.org/1999/xlink"
   xmlns:sodipodi="http://sodipodi.sourceforge.net/DTD/sodipodi-0.dtd"
   xmlns:inkscape="http://www.inkscape.org/namespaces/inkscape"
   width="210mm"
   height="297mm"
   viewBox="0 0 210 297"
   version="1.1"
   id="svg5630"
   inkscape:version="0.92.3 (2405546, 2018-03-11)"
   sodipodi:docname="js.svg">
  <defs
     id="defs5624">
    <linearGradient
       inkscape:collect="always"
       xlink:href="#a"
       id="linearGradient792"
       gradientUnits="userSpaceOnUse"
       gradientTransform="matrix(278.39,273.89,-273.89,278.39,1214.6,446.11)"
       x2="1" />
    <linearGradient
       id="a"
       x2="1"
       gradientTransform="matrix(278.39,273.89,-273.89,278.39,1214.6,446.11)"
       gradientUnits="userSpaceOnUse">
      <stop
         stop-color="#212121"
         stop-opacity=".61569"
         offset="0"
         id="stop777" />
      <stop
         stop-color="#4d4d4d"
         stop-opacity="0"
         offset="1"
         id="stop779" />
    </linearGradient>
  </defs>
  <sodipodi:namedview
     id="base"
     pagecolor="#ffffff"
     bordercolor="#666666"
     borderopacity="1.0"
     inkscape:pageopacity="0.0"
     inkscape:pageshadow="2"
     inkscape:zoom="0.35"
     inkscape:cx="400"
     inkscape:cy="560"
     inkscape:document-units="mm"
     inkscape:current-layer="layer1"
     showgrid="false"
     inkscape:window-width="1533"
     inkscape:window-height="845"
     inkscape:window-x="1987"
     inkscape:window-y="498"
     inkscape:window-maximized="1" />
  <metadata
     id="metadata5627">
    <rdf:RDF>
      <cc:Work
         rdf:about="">
        <dc:format>image/svg+xml</dc:format>
        <dc:type
           rdf:resource="http://purl.org/dc/dcmitype/StillImage" />
        <dc:title></dc:title>
      </cc:Work>
    </rdf:RDF>
  </metadata>
  <g
     inkscape:label="Calque 1"
     inkscape:groupmode="layer"
     id="layer1">
    <g
       transform="matrix(0.2614856,0,0,0.2885012,-164.13971,-61.150234)"
       id="g473">
      <path
         d="M 629.27,911.11 V 287.09 c 0,-41.778 33.867,-75.646 75.645,-75.646 h 416.3 l 311.9,311.9 v 451.04 h -803.84 v -63.27 z"
         id="path447"
         inkscape:connector-curvature="0"
         style="fill:#af00fa" />
      <g
         transform="matrix(1,0,0,0.87323,0,160.45)"
         id="g451">
        <path
           d="m 1433.1,932.09 v 241.64 c 0,38.83 -33.86,70.3 -75.64,70.3 H 704.9 c -41.778,0 -75.645,-31.47 -75.645,-70.3 V 932.09 h 803.84 z"
           id="path449"
           inkscape:connector-curvature="0"
           style="fill:#9700ff" />
      </g>
      <g
         transform="translate(3.2597)"
         id="g455">
        <path
           d="m 1117.8,211.44 h 0.14 l 311.94,311.94 v 260.83 c -2.19,1.131 -4.06,1.055 -5.56,-0.442 -14.77,-14.769 -292.47,-273.35 -292.47,-294.24 0,-91.863 -13.88,-275.89 -14.05,-278.09 z"
           id="path453"
           style="fill:url(#linearGradient792)"
           inkscape:connector-curvature="0" />
      </g>
      <g
         transform="translate(3.2597)"
         id="g459">
        <path
           d="m 1117.8,211.44 h 0.14 l 311.94,311.94 h -233.33 c -20.88,0 -40.91,-8.297 -55.68,-23.066 -14.77,-14.769 -23.07,-34.8 -23.07,-55.686 v -233.19 z"
           id="path457"
           inkscape:connector-curvature="0"
           style="fill:#9700ff" />
      </g>
      <g
         transform="translate(0,44.289)"
         id="g465"
         style="fill:#ffffff;fill-rule:nonzero">
        <path
           d="m 963.32,983.48 h 42.107 v 100.51 c 0,10.93 -0.71,19.32 -2.12,25.18 -1.41,5.85 -3.735,11.03 -6.979,15.55 -4.303,5.85 -9.592,10.28 -15.869,13.28 -6.278,2.99 -13.331,4.49 -21.159,4.49 -9.733,0 -18.409,-2.08 -26.026,-6.24 -7.617,-4.16 -14.141,-10.33 -19.572,-18.51 l 25.814,-23.38 c 0.635,4.58 2.116,8.11 4.443,10.57 2.328,2.47 5.255,3.71 8.781,3.71 4.021,0 6.789,-2.23 8.305,-6.67 1.517,-4.44 2.275,-15.55 2.275,-33.32 v -85.168 z"
           id="path461"
           inkscape:connector-curvature="0" />
        <path
           d="m 1043.5,1088.3 c 6.27,7.13 12.46,12.45 18.56,15.98 6.1,3.53 12.19,5.29 18.25,5.29 5.64,0 10.28,-1.52 13.91,-4.55 3.64,-3.03 5.45,-6.88 5.45,-11.53 0,-5.15 -1.57,-9.12 -4.71,-11.9 -3.13,-2.79 -10.24,-5.66 -21.31,-8.63 -15.17,-4.09 -25.89,-9.41 -32.16,-15.97 -6.28,-6.56 -9.42,-15.55 -9.42,-26.98 0,-14.81 4.95,-26.89 14.86,-36.233 9.91,-9.345 22.77,-14.018 38.57,-14.018 8.53,0 16.62,1.147 24.28,3.439 7.65,2.292 14.89,5.766 21.74,10.42 l -13.23,30.362 c -4.79,-4.09 -9.71,-7.17 -14.76,-9.26 -5.04,-2.08 -10.03,-3.12 -14.97,-3.12 -5.07,0 -9.2,1.22 -12.38,3.65 -3.17,2.44 -4.76,5.56 -4.76,9.37 0,3.88 1.4,6.98 4.18,9.31 2.79,2.32 8.17,4.55 16.14,6.66 l 1.9,0.53 c 17.21,4.66 28.53,9.77 33.96,15.34 3.67,3.81 6.46,8.38 8.36,13.7 1.9,5.33 2.86,11.23 2.86,17.72 0,16.44 -5.4,29.64 -16.19,39.62 -10.79,9.98 -25.18,14.97 -43.16,14.97 -10.8,0 -20.62,-1.83 -29.47,-5.5 -8.85,-3.67 -17.37,-9.42 -25.55,-17.24 z"
           id="path463"
           inkscape:connector-curvature="0" />
      </g>
      <g
         transform="matrix(1.2532,0,0,1.2532,685.92,-175.52)"
         id="g471"
         style="fill:#ffffff;fill-rule:nonzero">
        <path
           d="m 182.66,581.6 h 73.903 V 758 c 0,19.187 -1.238,33.918 -3.714,44.193 -2.476,10.275 -6.561,19.373 -12.255,27.296 -7.551,10.275 -16.836,18.042 -27.853,23.303 -11.017,5.262 -23.396,7.892 -37.137,7.892 -17.083,0 -32.31,-3.652 -45.679,-10.955 -13.369,-7.304 -24.82,-18.136 -34.352,-32.495 l 45.308,-41.037 c 1.114,8.046 3.713,14.236 7.798,18.569 4.085,4.332 9.223,6.499 15.412,6.499 7.056,0 11.915,-3.9 14.577,-11.699 2.661,-7.798 3.992,-27.295 3.992,-58.491 v -149.48 z"
           id="path467"
           inkscape:connector-curvature="0" />
        <path
           d="m 289.25,837.84 13.741,-50.507 c 9.656,8.418 20.271,14.886 31.845,19.404 11.575,4.519 23.242,6.778 35.002,6.778 8.294,0 14.607,-1.331 18.94,-3.992 4.333,-2.662 6.499,-6.53 6.499,-11.606 0,-8.294 -8.727,-14.483 -26.182,-18.568 -5.694,-1.362 -10.274,-2.538 -13.74,-3.528 -19.807,-5.447 -34.198,-12.596 -43.172,-21.447 -8.975,-8.851 -13.463,-20.333 -13.463,-34.445 0,-18.197 6.84,-32.742 20.519,-43.636 13.679,-10.893 32.216,-16.34 55.613,-16.34 12.007,0 24.232,1.393 36.672,4.178 12.441,2.785 25.161,7.087 38.159,12.905 l -13.741,45.493 c -8.789,-5.942 -17.702,-10.46 -26.739,-13.555 -9.036,-3.095 -18.073,-4.642 -27.11,-4.642 -7.551,0 -13.245,1.176 -17.083,3.528 -3.837,2.352 -5.756,5.756 -5.756,10.212 0,6.685 8.665,12.318 25.996,16.898 3.961,1.114 6.932,1.919 8.913,2.414 22.901,6.561 38.839,14.267 47.814,23.118 8.975,8.851 13.462,20.827 13.462,35.93 0,19.187 -7.365,34.692 -22.096,46.514 -14.732,11.822 -34.229,17.733 -58.491,17.733 -16.465,0 -31.753,-1.888 -45.865,-5.663 -14.112,-3.776 -27.358,-9.501 -39.737,-17.176 z"
           id="path469"
           inkscape:connector-curvature="0" />
      </g>
    </g>
  </g>
</svg>
