<?xml version="1.0" encoding="UTF-8" standalone="no"?>
<!-- Created with Inkscape (http://www.inkscape.org/) -->

<svg
   xmlns:dc="http://purl.org/dc/elements/1.1/"
   xmlns:cc="http://creativecommons.org/ns#"
   xmlns:rdf="http://www.w3.org/1999/02/22-rdf-syntax-ns#"
   xmlns:svg="http://www.w3.org/2000/svg"
   xmlns="http://www.w3.org/2000/svg"
   xmlns:xlink="http://www.w3.org/1999/xlink"
   xmlns:sodipodi="http://sodipodi.sourceforge.net/DTD/sodipodi-0.dtd"
   xmlns:inkscape="http://www.inkscape.org/namespaces/inkscape"
   width="210mm"
   height="297mm"
   viewBox="0 0 210 297"
   version="1.1"
   id="svg922"
   inkscape:version="0.92.3 (2405546, 2018-03-11)"
   sodipodi:docname="php.svg">
  <defs
     id="defs916">
    <linearGradient
       inkscape:collect="always"
       xlink:href="#a"
       id="linearGradient800"
       gradientUnits="userSpaceOnUse"
       gradientTransform="matrix(278.39,273.89,-273.89,278.39,1214.6,446.11)"
       x2="1" />
    <linearGradient
       id="a"
       x2="1"
       gradientTransform="matrix(278.39,273.89,-273.89,278.39,1214.6,446.11)"
       gradientUnits="userSpaceOnUse">
      <stop
         stop-color="#212121"
         stop-opacity=".61569"
         offset="0"
         id="stop777" />
      <stop
         stop-color="#4d4d4d"
         stop-opacity="0"
         offset="1"
         id="stop779" />
    </linearGradient>
  </defs>
  <sodipodi:namedview
     id="base"
     pagecolor="#ffffff"
     bordercolor="#666666"
     borderopacity="1.0"
     inkscape:pageopacity="0.0"
     inkscape:pageshadow="2"
     inkscape:zoom="0.35"
     inkscape:cx="400"
     inkscape:cy="560"
     inkscape:document-units="mm"
     inkscape:current-layer="layer1"
     showgrid="false"
     inkscape:window-width="1533"
     inkscape:window-height="845"
     inkscape:window-x="1987"
     inkscape:window-y="498"
     inkscape:window-maximized="1" />
  <metadata
     id="metadata919">
    <rdf:RDF>
      <cc:Work
         rdf:about="">
        <dc:format>image/svg+xml</dc:format>
        <dc:type
           rdf:resource="http://purl.org/dc/dcmitype/StillImage" />
        <dc:title></dc:title>
      </cc:Work>
    </rdf:RDF>
  </metadata>
  <g
     inkscape:label="Calque 1"
     inkscape:groupmode="layer"
     id="layer1">
    <g
       transform="matrix(0.24801248,0,0,0.24247553,-149.91648,-33.248732)"
       id="g589">
      <path
         d="M 629.27,911.11 V 287.09 c 0,-41.778 33.867,-75.646 75.645,-75.646 h 416.3 l 311.9,311.9 v 451.04 h -803.84 v -63.27 z"
         id="path559"
         inkscape:connector-curvature="0"
         style="fill:#5800c6" />
      <g
         transform="matrix(0.75567,0,0,0.75567,-643.58,575.45)"
         id="g567"
         style="fill:#ffffff;fill-rule:nonzero">
        <path
           d="m 2080.2,122.57 v 46.978 l -158.57,65.176 158.57,64.619 v 47.164 l -218.74,-90.244 v -43.264 z"
           id="path561"
           inkscape:connector-curvature="0" />
        <path
           d="m 2203.3,317.54 c 0,-10.522 3.65,-19.435 10.95,-26.739 7.31,-7.304 16.22,-10.955 26.74,-10.955 10.65,0 19.53,3.62 26.65,10.862 7.12,7.242 10.68,16.186 10.68,26.832 0,10.646 -3.59,19.59 -10.77,26.831 -7.18,7.242 -16.03,10.863 -26.56,10.863 -10.39,0 -19.28,-3.652 -26.64,-10.956 -7.37,-7.303 -11.05,-16.216 -11.05,-26.738 z m 71.86,-61.648 h -63.87 v -76.688 h 19.86 c 13.99,0 24.64,-2.847 31.94,-8.542 7.3,-5.694 10.96,-13.864 10.96,-24.51 0,-8.542 -2.82,-15.752 -8.45,-21.633 -5.64,-5.88 -12.54,-8.82 -20.71,-8.82 -8.66,0 -15.44,2.321 -20.33,6.964 -4.89,4.642 -7.64,11.419 -8.26,20.332 h -63.51 v -0.743 c 0,-24.139 8.61,-43.419 25.81,-57.841 17.21,-14.421 40.3,-21.632 69.27,-21.632 26.24,0 47.38,7.613 63.41,22.839 16.03,15.227 24.04,35.219 24.04,59.977 0,20.673 -5.54,37.508 -16.62,50.506 -11.08,12.998 -25.53,19.745 -43.35,20.24 z"
           id="path563"
           inkscape:connector-curvature="0" />
        <path
           d="m 2408.3,122.57 218.74,90.429 v 43.264 l -218.74,90.244 v -47.164 l 158.57,-64.619 -158.57,-65.176 z"
           id="path565"
           inkscape:connector-curvature="0" />
      </g>
      <g
         transform="matrix(1,0,0,0.87323,0,160.45)"
         id="g571">
        <path
           d="m 1433.1,932.09 v 241.64 c 0,38.83 -33.86,70.3 -75.64,70.3 H 704.9 c -41.778,0 -75.645,-31.47 -75.645,-70.3 V 932.09 h 803.84 z"
           id="path569"
           inkscape:connector-curvature="0"
           style="fill:#4a00a7" />
      </g>
      <g
         transform="translate(3.2597)"
         id="g575">
        <path
           d="m 1117.8,211.44 h 0.14 l 311.94,311.94 v 260.83 c -2.19,1.131 -4.06,1.055 -5.56,-0.442 -14.77,-14.769 -292.47,-273.35 -292.47,-294.24 0,-91.863 -13.88,-275.89 -14.05,-278.09 z"
           id="path573"
           style="fill:url(#linearGradient800)"
           inkscape:connector-curvature="0" />
      </g>
      <g
         transform="translate(3.2597)"
         id="g579">
        <path
           d="m 1117.8,211.44 h 0.14 l 311.94,311.94 h -233.33 c -20.88,0 -40.91,-8.297 -55.68,-23.066 -14.77,-14.769 -23.07,-34.8 -23.07,-55.686 v -233.19 z"
           id="path577"
           inkscape:connector-curvature="0"
           style="fill:#4a00a7" />
      </g>
      <g
         transform="translate(0,44.289)"
         id="g587"
         style="fill:#ffffff;fill-rule:nonzero">
        <path
           d="M 863.08,1138.4 H 823.513 V 983.51 h 44.116 c 17.28,0 29.411,0.847 36.393,2.539 6.983,1.693 12.907,4.585 17.774,8.675 5.712,4.726 10.068,10.634 13.065,17.724 2.998,7.08 4.496,14.97 4.496,23.64 0,9.24 -1.481,17.37 -4.443,24.39 -2.962,7.01 -7.335,12.78 -13.118,17.3 -4.373,3.38 -9.522,5.81 -15.446,7.3 -5.925,1.48 -15.411,2.22 -28.459,2.22 H 863.08 v 51.1 z m 0,-85.17 h 8.04 c 10.156,0 17.245,-1.39 21.265,-4.18 4.02,-2.78 6.03,-7.53 6.03,-14.23 0,-6.49 -1.975,-11.11 -5.924,-13.86 -3.95,-2.75 -10.932,-4.12 -20.948,-4.12 h -8.463 z"
           id="path581"
           inkscape:connector-curvature="0" />
        <path
           d="M 960.84,1138.4 V 983.51 h 42.213 v 60.198 h 56.28 V 983.51 h 42.32 v 154.89 h -42.32 v -63.06 h -56.28 v 63.06 z"
           id="path583"
           inkscape:connector-curvature="0" />
        <path
           d="m 1174.1,1138.4 h -39.57 V 983.51 h 44.12 c 17.28,0 29.41,0.847 36.39,2.539 6.98,1.693 12.91,4.585 17.77,8.675 5.72,4.726 10.07,10.634 13.07,17.724 3,7.08 4.5,14.97 4.5,23.64 0,9.24 -1.49,17.37 -4.45,24.39 -2.96,7.01 -7.33,12.78 -13.12,17.3 -4.37,3.38 -9.52,5.81 -15.44,7.3 -5.93,1.48 -15.41,2.22 -28.46,2.22 h -14.81 v 51.1 z m 0,-85.17 h 8.04 c 10.16,0 17.24,-1.39 21.26,-4.18 4.02,-2.78 6.03,-7.53 6.03,-14.23 0,-6.49 -1.97,-11.11 -5.92,-13.86 -3.95,-2.75 -10.93,-4.12 -20.95,-4.12 h -8.46 z"
           id="path585"
           inkscape:connector-curvature="0" />
      </g>
    </g>
  </g>
</svg>
