<?xml version="1.0" encoding="UTF-8" standalone="no"?>
<!-- Created with Inkscape (http://www.inkscape.org/) -->

<svg
   xmlns:dc="http://purl.org/dc/elements/1.1/"
   xmlns:cc="http://creativecommons.org/ns#"
   xmlns:rdf="http://www.w3.org/1999/02/22-rdf-syntax-ns#"
   xmlns:svg="http://www.w3.org/2000/svg"
   xmlns="http://www.w3.org/2000/svg"
   xmlns:sodipodi="http://sodipodi.sourceforge.net/DTD/sodipodi-0.dtd"
   xmlns:inkscape="http://www.inkscape.org/namespaces/inkscape"
   width="210mm"
   height="297mm"
   viewBox="0 0 210 297"
   version="1.1"
   id="svg1209"
   inkscape:version="0.92.3 (2405546, 2018-03-11)"
   sodipodi:docname="png.svg">
  <defs
     id="defs1203">
    <linearGradient
       id="a"
       x2="1"
       gradientTransform="matrix(278.39,273.89,-273.89,278.39,1214.6,446.11)"
       gradientUnits="userSpaceOnUse">
      <stop
         stop-color="#212121"
         stop-opacity=".61569"
         offset="0"
         id="stop1056" />
      <stop
         stop-color="#4d4d4d"
         stop-opacity="0"
         offset="1"
         id="stop1058" />
    </linearGradient>
  </defs>
  <sodipodi:namedview
     id="base"
     pagecolor="#ffffff"
     bordercolor="#666666"
     borderopacity="1.0"
     inkscape:pageopacity="0.0"
     inkscape:pageshadow="2"
     inkscape:zoom="0.35"
     inkscape:cx="-77.142857"
     inkscape:cy="560"
     inkscape:document-units="mm"
     inkscape:current-layer="layer1"
     showgrid="false"
     inkscape:window-width="1533"
     inkscape:window-height="845"
     inkscape:window-x="1987"
     inkscape:window-y="498"
     inkscape:window-maximized="1" />
  <metadata
     id="metadata1206">
    <rdf:RDF>
      <cc:Work
         rdf:about="">
        <dc:format>image/svg+xml</dc:format>
        <dc:type
           rdf:resource="http://purl.org/dc/dcmitype/StillImage" />
        <dc:title></dc:title>
      </cc:Work>
    </rdf:RDF>
  </metadata>
  <g
     inkscape:label="Calque 1"
     inkscape:groupmode="layer"
     id="layer1">
    <g
       transform="matrix(0.26211809,0,0,0.28555447,-164.08417,-58.988211)"
       id="g984">
      <path
         style="fill:#00c783"
         inkscape:connector-curvature="0"
         d="M 629.27,911.11 V 287.09 c 0,-41.778 33.867,-75.646 75.645,-75.646 h 416.3 l 311.9,311.9 v 451.04 h -803.84 v -63.27 z"
         id="path958" />
      <g
         transform="matrix(1,0,0,0.87323,0,160.45)"
         id="g962">
        <path
           style="fill:#00af73"
           inkscape:connector-curvature="0"
           d="m 1433.1,932.09 v 241.64 c 0,38.83 -33.86,70.3 -75.64,70.3 H 704.9 c -41.778,0 -75.645,-31.47 -75.645,-70.3 V 932.09 h 803.84 z"
           id="path960" />
      </g>
      <g
         transform="translate(-799.57,117.45)"
         id="g966">
        <path
           style="fill:#ffffff"
           inkscape:connector-curvature="0"
           d="m 2011.2,779.52 c -120.29,0.37 -240.57,0 -360.86,0 -0.85,-0.003 -1.7,-0.014 -2.56,-0.04 -1.88,-0.059 -3.76,-0.181 -5.63,-0.367 -5.92,-0.587 -11.77,-1.811 -17.42,-3.644 -7.41,-2.401 -14.47,-5.845 -20.92,-10.204 -6.39,-4.312 -12.16,-9.514 -17.12,-15.411 -2.95,-3.517 -5.61,-7.279 -7.95,-11.235 -2.75,-4.66 -5.04,-9.589 -6.83,-14.694 -2.08,-5.924 -3.49,-12.084 -4.19,-18.324 -0.21,-1.87 -0.35,-3.748 -0.43,-5.628 -0.05,-1.031 -0.07,-2.062 -0.08,-3.093 -0.17,-56.608 0,-113.22 0,-169.82 0,-1.023 0.02,-2.047 0.06,-3.069 0.07,-1.882 0.2,-3.762 0.4,-5.635 0.58,-5.573 1.74,-11.085 3.43,-16.426 1.49,-4.674 3.38,-9.215 5.67,-13.554 2.76,-5.264 6.1,-10.229 9.92,-14.782 4.52,-5.376 9.72,-10.176 15.44,-14.249 6.34,-4.517 13.32,-8.135 20.67,-10.717 5.77,-2.025 11.75,-3.411 17.82,-4.127 2.04,-0.241 4.08,-0.406 6.14,-0.495 1.03,-0.044 2.06,-0.067 3.09,-0.076 120.62,-0.374 241.25,-0.374 361.87,0 0.86,0.008 1.72,0.024 2.58,0.056 1.88,0.07 3.76,0.203 5.64,0.401 5.91,0.624 11.75,1.883 17.39,3.749 7.23,2.393 14.13,5.783 20.44,10.047 5.81,3.929 11.12,8.596 15.77,13.856 3.15,3.574 6,7.419 8.5,11.48 3.1,5.042 5.66,10.418 7.62,16.003 2.03,5.764 3.42,11.751 4.13,17.818 0.24,2.037 0.41,4.083 0.5,6.133 0.04,1.031 0.06,2.063 0.07,3.095 0.17,56.608 0,113.22 0,169.82 0,1.022 -0.01,2.045 -0.05,3.067 -0.07,1.883 -0.21,3.765 -0.4,5.639 -0.61,5.74 -1.82,11.415 -3.6,16.906 -2.4,7.407 -5.84,14.47 -10.2,20.921 -3.83,5.672 -8.37,10.865 -13.47,15.428 -4.31,3.859 -9.03,7.264 -14.05,10.145 -4.4,2.524 -9.03,4.644 -13.82,6.326 -5.31,1.866 -10.82,3.19 -16.39,3.946 -1.52,0.476 -2.73,0.477 -5.05,0.754 z m 14.05,-35.172 c 0.56,-0.163 1.11,-0.336 1.66,-0.518 4.74,-1.567 9.24,-3.847 13.3,-6.74 3.86,-2.747 7.32,-6.044 10.25,-9.762 3.47,-4.4 6.19,-9.385 8.02,-14.685 1.23,-3.57 2.05,-7.279 2.45,-11.034 0.17,-1.64 0.26,-3.286 0.27,-4.935 0.17,-56.635 0.17,-113.27 0,-169.9 -0.01,-1.649 -0.1,-3.296 -0.27,-4.935 -0.4,-3.755 -1.22,-7.465 -2.45,-11.034 -1.83,-5.3 -4.55,-10.285 -8.02,-14.686 -2.93,-3.717 -6.39,-7.015 -10.25,-9.761 -4.06,-2.893 -8.56,-5.173 -13.3,-6.74 -3.39,-1.122 -6.9,-1.879 -10.45,-2.254 -1.64,-0.173 -3.29,-0.26 -4.94,-0.275 -120.38,-0.373 -240.75,-10e-4 -361.13,-10e-4 -0.63,0.002 -1.26,0.011 -1.89,0.034 -1.13,0.043 -2.26,0.123 -3.38,0.242 -3.76,0.396 -7.47,1.219 -11.04,2.449 -5.78,1.993 -11.19,5.054 -15.88,8.991 -3.38,2.847 -6.39,6.145 -8.92,9.782 -2.72,3.93 -4.88,8.252 -6.38,12.793 -1.12,3.393 -1.88,6.904 -2.26,10.457 -0.17,1.641 -0.26,3.288 -0.27,4.938 -0.17,56.635 -0.17,113.27 0,169.9 0,0.62 0.02,1.24 0.04,1.86 0.06,1.233 0.16,2.465 0.3,3.691 0.43,3.645 1.26,7.243 2.48,10.707 1.83,5.192 4.51,10.076 7.92,14.396 2.93,3.718 6.4,7.015 10.25,9.762 4.07,2.894 8.56,5.173 13.3,6.74 3.29,1.089 6.7,1.835 10.15,2.221 1.74,0.194 3.49,0.292 5.24,0.308 4,0.012 8,0.024 11.99,0.036 l 89.43,-120.1 c 0.23,-0.287 0.45,-0.582 0.69,-0.862 0.48,-0.559 0.99,-1.086 1.54,-1.577 2.19,-1.966 4.9,-3.327 7.79,-3.91 0.72,-0.146 1.45,-0.244 2.18,-0.292 0.37,-0.025 0.74,-0.025 1.1,-0.037 0.37,0.012 0.74,0.024 1.1,0.037 0.37,0.036 0.74,0.061 1.1,0.109 0.73,0.098 1.45,0.244 2.16,0.437 2.48,0.676 4.8,1.937 6.72,3.656 0.54,0.491 1.06,1.018 1.53,1.577 0.24,0.28 0.46,0.575 0.69,0.862 l 28.62,38.432 70.31,-112.33 c 0.77,-0.97 1.43,-2.033 2.31,-2.911 0.87,-0.878 1.86,-1.662 2.9,-2.322 2.12,-1.33 4.5,-2.166 6.98,-2.445 1.23,-0.14 2.48,0 3.72,0 1.21,0.276 2.42,0.552 3.63,0.829 1.11,0.538 2.3,0.955 3.34,1.616 2.83,1.78 3.18,2.668 5.22,5.233 l 120.15,191.95 z m -321.84,2.012 h 122.72 l -61.36,-82.406 c -20.45,27.469 -40.9,54.937 -61.36,82.406 z m 124.53,-53.094 39.54,53.094 h 119.91 l -96.34,-153.92 -63.11,100.82 z m -136.26,-186.22 c 24.13,0 43.72,19.589 43.72,43.718 0,24.128 -19.59,43.717 -43.72,43.717 -24.13,0 -43.72,-19.589 -43.72,-43.717 0,-24.129 19.59,-43.718 43.72,-43.718 z m 0,16.895 c 14.81,0 26.83,12.019 26.83,26.823 0,14.804 -12.02,26.823 -26.83,26.823 -14.8,0 -26.82,-12.019 -26.82,-26.823 0,-14.804 12.02,-26.823 26.82,-26.823 z"
           id="path964" />
      </g>
      <g
         transform="translate(3.2597)"
         id="g970">
        <path
           style="fill:url(#a)"
           inkscape:connector-curvature="0"
           d="m 1117.8,211.44 h 0.14 l 311.94,311.94 v 260.83 c -2.19,1.131 -4.06,1.055 -5.56,-0.442 -14.77,-14.769 -292.47,-273.35 -292.47,-294.24 0,-91.863 -13.88,-275.89 -14.05,-278.09 z"
           id="path968" />
      </g>
      <g
         transform="translate(3.2597)"
         id="g974">
        <path
           style="fill:#00af73"
           inkscape:connector-curvature="0"
           d="m 1117.8,211.44 h 0.14 l 311.94,311.94 h -233.33 c -20.88,0 -40.91,-8.297 -55.68,-23.066 -14.77,-14.769 -23.07,-34.8 -23.07,-55.686 v -233.19 z"
           id="path972" />
      </g>
      <g
         style="fill:#ffffff;fill-rule:nonzero"
         transform="translate(0,44.289)"
         id="g982">
        <path
           inkscape:connector-curvature="0"
           d="M 834.99,1138.4 H 795.423 V 983.51 h 44.117 c 17.279,0 29.41,0.847 36.393,2.539 6.982,1.693 12.907,4.585 17.773,8.675 5.713,4.726 10.068,10.634 13.066,17.724 2.997,7.08 4.496,14.97 4.496,23.64 0,9.24 -1.481,17.37 -4.443,24.39 -2.963,7.01 -7.335,12.78 -13.119,17.3 -4.373,3.38 -9.521,5.81 -15.446,7.3 -5.924,1.48 -15.41,2.22 -28.458,2.22 H 834.99 v 51.1 z m 0,-85.17 h 8.041 c 10.156,0 17.244,-1.39 21.264,-4.18 4.021,-2.78 6.031,-7.53 6.031,-14.23 0,-6.49 -1.975,-11.11 -5.925,-13.86 -3.949,-2.75 -10.932,-4.12 -20.947,-4.12 h -8.464 z"
           id="path976" />
        <path
           inkscape:connector-curvature="0"
           d="M 932.75,1138.4 V 983.51 h 40.731 l 58.501,79.658 c 1.13,1.63 2.98,4.89 5.56,9.79 2.57,4.9 5.41,10.74 8.51,17.51 -0.84,-6.42 -1.46,-12.13 -1.85,-17.14 -0.38,-5.01 -0.58,-9.45 -0.58,-13.33 V 983.51 h 40.52 v 154.89 h -40.52 l -58.504,-79.99 c -1.199,-1.62 -3.085,-4.88 -5.66,-9.78 -2.574,-4.9 -5.377,-10.67 -8.41,-17.3 0.846,6.49 1.463,12.24 1.851,17.25 0.388,5 0.582,9.45 0.582,13.33 v 76.49 z"
           id="path978" />
        <path
           inkscape:connector-curvature="0"
           d="m 1191,1081.3 v -32.48 h 82.94 c 0.08,1.06 0.13,2.23 0.16,3.49 0.04,1.27 0.06,3.14 0.06,5.61 0,26.66 -7.04,47.34 -21.11,62.05 -14.07,14.7 -33.87,22.06 -59.4,22.06 -12.56,0 -23.72,-1.89 -33.49,-5.66 -9.77,-3.78 -18.49,-9.54 -26.18,-17.3 -7.34,-7.41 -13.03,-16.17 -17.09,-26.29 -4.05,-10.12 -6.08,-20.72 -6.08,-31.79 0,-11.57 1.98,-22.2 5.93,-31.9 3.94,-9.69 9.83,-18.42 17.66,-26.18 7.76,-7.548 16.67,-13.261 26.72,-17.14 10.05,-3.879 20.89,-5.819 32.53,-5.819 15.16,0 28.58,2.998 40.25,8.993 11.67,5.995 21.5,14.916 29.47,26.766 l -36.61,17.56 c -4.37,-5.99 -9.29,-10.45 -14.76,-13.38 -5.46,-2.93 -11.58,-4.39 -18.35,-4.39 -12.63,0 -22.57,4.21 -29.84,12.64 -7.26,8.43 -10.89,19.94 -10.89,34.54 0,14.74 3.63,26.35 10.89,34.81 7.27,8.46 17.21,12.69 29.84,12.69 10.72,0 19.66,-2.62 26.82,-7.88 7.16,-5.25 11.33,-12.25 12.53,-21 z"
           id="path980" />
      </g>
    </g>
  </g>
</svg>
