<?xml version="1.0" encoding="UTF-8" standalone="no"?>
<!-- Created with Inkscape (http://www.inkscape.org/) -->

<svg
   xmlns:dc="http://purl.org/dc/elements/1.1/"
   xmlns:cc="http://creativecommons.org/ns#"
   xmlns:rdf="http://www.w3.org/1999/02/22-rdf-syntax-ns#"
   xmlns:svg="http://www.w3.org/2000/svg"
   xmlns="http://www.w3.org/2000/svg"
   xmlns:xlink="http://www.w3.org/1999/xlink"
   xmlns:sodipodi="http://sodipodi.sourceforge.net/DTD/sodipodi-0.dtd"
   xmlns:inkscape="http://www.inkscape.org/namespaces/inkscape"
   width="210mm"
   height="297mm"
   viewBox="0 0 210 297"
   version="1.1"
   id="svg1620"
   inkscape:version="0.92.3 (2405546, 2018-03-11)"
   sodipodi:docname="scss.svg">
  <defs
     id="defs1614">
    <linearGradient
       inkscape:collect="always"
       xlink:href="#a"
       id="linearGradient812"
       gradientUnits="userSpaceOnUse"
       gradientTransform="matrix(278.39,273.89,-273.89,278.39,1214.6,446.11)"
       x2="1" />
    <linearGradient
       id="a"
       x2="1"
       gradientTransform="matrix(278.39,273.89,-273.89,278.39,1214.6,446.11)"
       gradientUnits="userSpaceOnUse">
      <stop
         stop-color="#212121"
         stop-opacity=".61569"
         offset="0"
         id="stop777" />
      <stop
         stop-color="#4d4d4d"
         stop-opacity="0"
         offset="1"
         id="stop779" />
    </linearGradient>
  </defs>
  <sodipodi:namedview
     id="base"
     pagecolor="#ffffff"
     bordercolor="#666666"
     borderopacity="1.0"
     inkscape:pageopacity="0.0"
     inkscape:pageshadow="2"
     inkscape:zoom="0.35"
     inkscape:cx="400"
     inkscape:cy="560"
     inkscape:document-units="mm"
     inkscape:current-layer="g761"
     showgrid="false"
     inkscape:window-width="1533"
     inkscape:window-height="845"
     inkscape:window-x="1987"
     inkscape:window-y="498"
     inkscape:window-maximized="1" />
  <metadata
     id="metadata1617">
    <rdf:RDF>
      <cc:Work
         rdf:about="">
        <dc:format>image/svg+xml</dc:format>
        <dc:type
           rdf:resource="http://purl.org/dc/dcmitype/StillImage" />
        <dc:title></dc:title>
      </cc:Work>
    </rdf:RDF>
  </metadata>
  <g
     inkscape:label="Calque 1"
     inkscape:groupmode="layer"
     id="layer1">
    <g
       transform="matrix(0.26305846,0,0,0.28774493,-166.4146,-61.719216)"
       id="g771">
      <path
         d="M 629.27,911.11 V 287.09 c 0,-41.778 33.867,-75.646 75.645,-75.646 h 416.3 l 311.9,311.9 v 451.04 h -803.84 v -63.27 z"
         id="path741"
         inkscape:connector-curvature="0"
         style="fill:#0692c1" />
      <g
         transform="matrix(1,0,0,0.87323,0,160.45)"
         id="g745">
        <path
           d="m 1433.1,932.09 v 241.64 c 0,38.83 -33.86,70.3 -75.64,70.3 H 704.9 c -41.778,0 -75.645,-31.47 -75.645,-70.3 V 932.09 h 803.84 z"
           id="path743"
           inkscape:connector-curvature="0"
           style="fill:#0a729b" />
      </g>
      <g
         transform="translate(3.2597)"
         id="g749">
        <path
           d="m 1117.8,211.44 h 0.14 l 311.94,311.94 v 260.83 c -2.19,1.131 -4.06,1.055 -5.56,-0.442 -14.77,-14.769 -292.47,-273.35 -292.47,-294.24 0,-91.863 -13.88,-275.89 -14.05,-278.09 z"
           id="path747"
           style="fill:url(#linearGradient812)"
           inkscape:connector-curvature="0" />
      </g>
      <g
         transform="translate(3.2597)"
         id="g753">
        <path
           d="m 1117.8,211.44 h 0.14 l 311.94,311.94 h -233.33 c -20.88,0 -40.91,-8.297 -55.68,-23.066 -14.77,-14.769 -23.07,-34.8 -23.07,-55.686 v -233.19 z"
           id="path751"
           inkscape:connector-curvature="0"
           style="fill:#0a729b" />
      </g>
      <g
         transform="translate(68.394164,44.289)"
         id="g761"
         style="fill:#ffffff;fill-rule:nonzero">
        <path
           d="m 966.02,989.51 v 46.128 c -5.784,-6.42 -11.55,-11.13 -17.298,-14.13 -5.748,-2.99 -11.902,-4.49 -18.461,-4.49 -12.131,0 -21.952,4.14 -29.464,12.43 -7.511,8.29 -11.267,19.1 -11.267,32.43 0,12.41 3.827,22.71 11.479,30.89 7.652,8.18 17.403,12.27 29.252,12.27 6.559,0 12.713,-1.5 18.461,-4.5 5.748,-2.99 11.514,-7.74 17.298,-14.23 v 46.24 c -6.701,3.24 -13.366,5.67 -19.996,7.3 -6.629,1.62 -13.33,2.43 -20.1,2.43 -8.464,0 -16.275,-1.01 -23.434,-3.02 -7.159,-2.01 -13.735,-5.06 -19.73,-9.15 -11.567,-7.75 -20.384,-17.52 -26.449,-29.3 -6.066,-11.78 -9.098,-25.04 -9.098,-39.78 0,-11.85 1.922,-22.62 5.765,-32.32 3.844,-9.7 9.645,-18.5 17.404,-26.4 7.335,-7.543 15.604,-13.185 24.808,-16.923 9.204,-3.739 19.449,-5.608 30.734,-5.608 6.77,0 13.471,0.812 20.1,2.434 6.63,1.622 13.295,4.055 19.996,7.299 z"
           id="path755"
           inkscape:connector-curvature="0" />
        <path
           d="m 996.7,1088.3 c 6.279,7.13 12.469,12.45 18.569,15.98 6.1,3.53 12.18,5.29 18.25,5.29 5.64,0 10.28,-1.52 13.91,-4.55 3.63,-3.03 5.45,-6.88 5.45,-11.53 0,-5.15 -1.57,-9.12 -4.71,-11.9 -3.14,-2.79 -10.25,-5.66 -21.32,-8.63 -15.16,-4.09 -25.88,-9.41 -32.159,-15.97 -6.277,-6.56 -9.416,-15.55 -9.416,-26.98 0,-14.81 4.955,-26.89 14.865,-36.233 9.91,-9.345 22.76,-14.018 38.56,-14.018 8.54,0 16.63,1.147 24.28,3.439 7.65,2.292 14.9,5.766 21.74,10.42 l -13.22,30.362 c -4.8,-4.09 -9.72,-7.17 -14.76,-9.26 -5.04,-2.08 -10.03,-3.12 -14.97,-3.12 -5.08,0 -9.2,1.22 -12.38,3.65 -3.17,2.44 -4.76,5.56 -4.76,9.37 0,3.88 1.39,6.98 4.18,9.31 2.79,2.32 8.16,4.55 16.13,6.66 l 1.91,0.53 c 17.21,4.66 28.53,9.77 33.96,15.34 3.66,3.81 6.45,8.38 8.35,13.7 1.91,5.33 2.86,11.23 2.86,17.72 0,16.44 -5.39,29.64 -16.18,39.62 -10.8,9.98 -25.18,14.97 -43.17,14.97 -10.79,0 -20.61,-1.83 -29.46,-5.5 -8.854,-3.67 -17.371,-9.42 -25.552,-17.24 z"
           id="path757"
           inkscape:connector-curvature="0" />
        <path
           d="m 1122.6,1088.3 c 6.27,7.13 12.46,12.45 18.56,15.98 6.1,3.53 12.19,5.29 18.25,5.29 5.65,0 10.28,-1.52 13.91,-4.55 3.64,-3.03 5.45,-6.88 5.45,-11.53 0,-5.15 -1.57,-9.12 -4.7,-11.9 -3.14,-2.79 -10.25,-5.66 -21.32,-8.63 -15.17,-4.09 -25.89,-9.41 -32.16,-15.97 -6.28,-6.56 -9.42,-15.55 -9.42,-26.98 0,-14.81 4.96,-26.89 14.86,-36.233 9.91,-9.345 22.77,-14.018 38.57,-14.018 8.53,0 16.62,1.147 24.28,3.439 7.65,2.292 14.9,5.766 21.74,10.42 l -13.23,30.362 c -4.79,-4.09 -9.71,-7.17 -14.76,-9.26 -5.04,-2.08 -10.03,-3.12 -14.97,-3.12 -5.07,0 -9.2,1.22 -12.37,3.65 -3.18,2.44 -4.76,5.56 -4.76,9.37 0,3.88 1.39,6.98 4.17,9.31 2.79,2.32 8.17,4.55 16.14,6.66 l 1.9,0.53 c 17.21,4.66 28.53,9.77 33.96,15.34 3.67,3.81 6.46,8.38 8.36,13.7 1.9,5.33 2.86,11.23 2.86,17.72 0,16.44 -5.4,29.64 -16.19,39.62 -10.79,9.98 -25.18,14.97 -43.16,14.97 -10.79,0 -20.62,-1.83 -29.47,-5.5 -8.85,-3.67 -17.36,-9.42 -25.55,-17.24 z"
           id="path759"
           inkscape:connector-curvature="0" />
        <path
           style="fill:#ffffff;fill-rule:nonzero;stroke-width:1"
           d="m 778.05036,977.23059 c -15.8,0 -28.65995,4.67209 -38.56995,14.01709 -9.9,9.34302 -14.86104,21.42432 -14.86104,36.23432 0,11.43 3.14146,20.42 9.42149,26.98 6.27,6.56 16.98995,11.8792 32.15996,15.9692 11.06999,2.97 18.17817,5.8394 21.31817,8.6294 3.13,2.78 4.70092,6.7517 4.70092,11.9014 0,4.6501 -1.80939,8.4998 -5.44937,11.5298 -3.63001,3.03 -8.26025,4.5491 -13.91025,4.5491 -6.05999,0 -12.14971,-1.759 -18.24971,-5.289 -6.10001,-3.53 -12.29009,-8.85 -18.5601,-15.98 l -19.0512,31.4302 c 8.18999,7.82 16.70156,13.569 25.55156,17.239 8.85,3.67 18.67867,5.5008 29.46866,5.5008 17.98001,0 32.37086,-4.9907 43.16086,-14.9706 10.79001,-9.9801 16.18901,-23.1797 16.18901,-39.6197 0,-6.49 -0.96024,-12.3902 -2.86024,-17.7202 -1.89991,-5.32 -4.68872,-9.8892 -8.35872,-13.6992 -5.43001,-5.57 -16.75135,-10.6807 -33.96136,-15.3407 l -1.89961,-0.5298 c -7.97002,-2.11 -13.34988,-4.341 -16.13989,-6.661 -2.78,-2.33 -4.17053,-5.43 -4.17053,-9.31 0,-3.81 1.58182,-6.9293 4.76183,-9.3693 3.17,-2.43 7.29815,-3.6493 12.36815,-3.6493 4.94,0 9.93104,1.0395 14.97105,3.1195 5.05,2.09 9.97084,5.1697 14.76085,9.2597 l 13.22858,-30.36166 c -6.84,-4.654 -14.08858,-8.12788 -21.73856,-10.41988 -7.66001,-2.292 -15.75056,-3.43917 -24.28056,-3.43917 z"
           id="path759-3"
           inkscape:connector-curvature="0" />
      </g>
      <g
         transform="matrix(0.9546,0,0,0.9546,-1330,511.72)"
         id="g769"
         style="fill:#ffffff;fill-rule:nonzero">
        <path
           d="m 2383.9,52.256 v 44.936 c -0.86,0 -2.16,-0.062 -3.9,-0.186 -1.73,-0.124 -2.97,-0.186 -3.71,-0.186 -12.13,0 -20.3,2.194 -24.51,6.581 -4.21,4.386 -6.31,13.439 -6.31,27.156 v 44.489 c 0,17.344 -2.86,29.733 -8.58,37.166 -5.71,7.434 -15.96,12.699 -30.74,15.795 14.9,2.973 25.18,8.083 30.84,15.331 5.65,7.248 8.48,19.605 8.48,37.073 v 44.861 c 0,13.594 2.07,22.553 6.22,26.878 4.14,4.325 12.22,6.487 24.23,6.487 0.87,0 2.19,-0.062 3.99,-0.185 1.8,-0.124 3.13,-0.186 3.99,-0.186 v 44.936 c -1.86,0 -4.46,0.062 -7.81,0.185 -3.35,0.124 -5.83,0.186 -7.45,0.186 -13.39,0 -24.53,-0.742 -33.39,-2.227 -8.87,-1.484 -16.29,-3.774 -22.24,-6.869 -7.32,-3.959 -12.43,-9.434 -15.35,-16.425 -2.91,-6.992 -4.37,-18.901 -4.37,-35.729 v -47.451 c 0,-16.437 -3.07,-28.024 -9.19,-34.76 -6.13,-6.736 -16.56,-10.104 -31.29,-10.104 -0.5,0 -1.55,0.063 -3.16,0.187 -1.61,0.125 -2.78,0.187 -3.53,0.187 v -44.935 c 0.75,0 1.86,0.062 3.35,0.187 1.48,0.124 2.6,0.187 3.34,0.187 14.61,0 25,-3.43 31.19,-10.288 6.19,-6.859 9.29,-18.507 9.29,-34.944 v -47.086 c 0,-16.828 1.49,-28.799 4.46,-35.913 2.98,-7.114 8.07,-12.651 15.26,-16.61 5.95,-3.095 13.43,-5.384 22.42,-6.869 8.99,-1.484 20.19,-2.227 33.59,-2.227 1.48,0 3.87,0.062 7.16,0.186 3.29,0.124 5.86,0.186 7.72,0.186 z"
           id="path763"
           inkscape:connector-curvature="0" />
        <path
           d="m 2453.4,178.15 c 0,-10.522 3.62,-19.343 10.86,-26.461 7.24,-7.117 16.13,-10.676 26.65,-10.676 10.64,0 19.52,3.528 26.64,10.584 7.12,7.056 10.68,15.907 10.68,26.553 0,10.646 -3.59,19.59 -10.77,26.831 -7.18,7.242 -16.03,10.863 -26.55,10.863 -10.4,0 -19.25,-3.652 -26.56,-10.956 -7.3,-7.303 -10.95,-16.216 -10.95,-26.738 z m 4.08,86.715 h 69.26 l -57.37,116.42 h -51.44 z"
           id="path765"
           inkscape:connector-curvature="0" />
        <path
           d="m 2563.1,52.256 c 1.86,0 4.43,-0.062 7.71,-0.186 3.28,-0.124 5.66,-0.186 7.14,-0.186 13.37,0 24.52,0.743 33.43,2.227 8.91,1.485 16.4,3.774 22.47,6.869 7.18,3.959 12.28,9.496 15.31,16.61 3.04,7.114 4.55,19.085 4.55,35.913 v 47.086 c 0,16.561 3.05,28.24 9.14,35.036 6.09,6.797 16.53,10.196 31.32,10.196 0.74,0 1.86,-0.063 3.35,-0.187 1.49,-0.125 2.61,-0.187 3.36,-0.187 v 44.935 c -0.75,0 -1.87,-0.062 -3.36,-0.187 -1.49,-0.124 -2.61,-0.187 -3.35,-0.187 -14.79,0 -25.23,3.399 -31.32,10.197 -6.09,6.798 -9.14,18.353 -9.14,34.667 v 47.451 c 0,16.952 -1.51,28.985 -4.55,36.1 -3.03,7.115 -8.13,12.59 -15.31,16.426 -5.57,2.971 -12.6,5.168 -21.08,6.59 -8.48,1.423 -19.47,2.134 -32.96,2.134 -1.73,0 -4.46,-0.062 -8.17,-0.186 -3.71,-0.123 -6.56,-0.185 -8.54,-0.185 v -44.936 c 1.11,0 2.54,0.062 4.27,0.186 1.73,0.123 2.97,0.185 3.71,0.185 12.01,0 20.09,-2.131 24.24,-6.394 4.14,-4.263 6.22,-13.254 6.22,-26.971 v -44.861 c 0,-17.344 2.84,-29.671 8.54,-36.98 5.69,-7.31 15.91,-12.451 30.64,-15.424 -14.86,-3.096 -25.1,-8.299 -30.73,-15.609 -5.64,-7.309 -8.45,-19.76 -8.45,-37.352 v -44.489 c 0,-13.717 -2.08,-22.77 -6.22,-27.156 -4.15,-4.387 -11.98,-6.581 -23.49,-6.581 -0.87,0 -2.26,0.062 -4.18,0.186 -1.92,0.124 -3.44,0.186 -4.55,0.186 z"
           id="path767"
           inkscape:connector-curvature="0" />
      </g>
    </g>
  </g>
</svg>
